<svg width="46" height="40" viewBox="0 0 46 40" fill="none" xmlns="http://www.w3.org/2000/svg">
<path d="M17.0455 -1.90735e-06C26.468 -2.31922e-06 34.0911 7.39336 34.0911 16.4613C34.0911 19.3681 33.3058 22.2117 31.8009 24.7077L26.1081 21.5166C27.0242 19.9684 27.5149 18.2306 27.5149 16.4613C27.5149 10.8689 22.8037 6.35071 17.0455 6.35071" fill="#BE8343"/>
<path d="M17.0455 6.35071C11.2546 6.35071 6.5761 10.9005 6.5761 16.4613C6.5761 18.2306 7.06686 20 7.98293 21.5166L2.29018 24.7077C0.785206 22.2117 -2.34785e-07 19.3365 -3.60464e-07 16.4613C-7.58216e-07 7.36176 7.65576 -4.14934e-06 17.0455 -4.55978e-06" fill="#BE8343"/>
<path d="M30.6054 16.5931C26.8774 15.743 23.1417 17.9724 22.2614 21.5726C21.3811 25.1728 23.6896 28.7805 27.4176 29.6306C31.1456 30.4807 34.8813 28.2513 35.7616 24.6511C36.6419 21.0509 34.3334 17.4432 30.6054 16.5931Z" fill="#BE8343"/>
<path d="M18.1251 10.8689L22.3456 15.7662C19.9246 17.6935 18.5505 20.5371 18.5505 23.5703C18.5505 29.1311 23.229 33.6493 28.9872 33.6493C34.7453 33.6493 39.4239 29.1311 39.4239 23.5703C39.4239 20.7583 38.2461 18.1359 36.1195 16.2085L40.6344 11.564C44.037 14.6603 46 19.0205 46 23.5387C46 32.6066 38.3769 40 28.9872 40C19.5974 40 11.9417 32.6066 11.9416 23.5387C11.9416 18.6098 14.1991 13.9968 18.1251 10.8689Z" fill="#BE8343"/>
</svg>
